<?xml version="1.0" encoding="UTF-8" standalone="no"?>
<svg
   _ngcontent-ng-c586675657=""
   fill="none"
   viewBox="0 0 223 34"
   width="32"
   class="angular-logo"
   version="1.1"
   id="svg9"
   sodipodi:docname="angular-design-patterns-logo.svg"
   height="34"
   xml:space="preserve"
   inkscape:version="1.3 (0e150ed6c4, 2023-07-21)"
   xmlns:inkscape="http://www.inkscape.org/namespaces/inkscape"
   xmlns:sodipodi="http://sodipodi.sourceforge.net/DTD/sodipodi-0.dtd"
   xmlns="http://www.w3.org/2000/svg"
   xmlns:svg="http://www.w3.org/2000/svg"><sodipodi:namedview
     id="namedview9"
     pagecolor="#ffffff"
     bordercolor="#000000"
     borderopacity="0.25"
     inkscape:showpageshadow="2"
     inkscape:pageopacity="0.0"
     inkscape:pagecheckerboard="0"
     inkscape:deskcolor="#d1d1d1"
     inkscape:zoom="20.237288"
     inkscape:cx="30.315327"
     inkscape:cy="23.7433"
     inkscape:window-width="1920"
     inkscape:window-height="1009"
     inkscape:window-x="-8"
     inkscape:window-y="-8"
     inkscape:window-maximized="1"
     inkscape:current-layer="svg9" /><g
     _ngcontent-ng-c586675657=""
     clip-path="url(#a)"
     id="g2"
     transform="matrix(1.0041562,0,0,1.0079316,1.7863e-6,-101.46875)"><path
       _ngcontent-ng-c586675657=""
       fill="url(#b)"
       d="M 222.077,39.192 214.058,165.115 137.387,0 Z m -53.105,162.825 -57.933,33.056 -57.934,-33.056 11.783,-28.556 h 92.301 z M 111.039,62.675 141.396,136.478 H 80.681 Z M 7.937,165.115 0,39.192 84.69,0 Z"
       id="path1"
       style="fill:url(#b)" /><path
       _ngcontent-ng-c586675657=""
       fill="url(#c)"
       d="M 222.077,39.192 214.058,165.115 137.387,0 Z m -53.105,162.825 -57.933,33.056 -57.934,-33.056 11.783,-28.556 h 92.301 z M 111.039,62.675 141.396,136.478 H 80.681 Z M 7.937,165.115 0,39.192 84.69,0 Z"
       id="path2"
       style="fill:url(#c)" /></g><defs
     _ngcontent-ng-c586675657=""
     id="defs9"><linearGradient
       _ngcontent-ng-c586675657=""
       id="b"
       x1="49.008999"
       x2="225.82899"
       y1="213.75"
       y2="129.722"
       gradientUnits="userSpaceOnUse"><stop
         _ngcontent-ng-c586675657=""
         stop-color="#E40035"
         id="stop2" /><stop
         _ngcontent-ng-c586675657=""
         offset=".24"
         stop-color="#F60A48"
         id="stop3" /><stop
         _ngcontent-ng-c586675657=""
         offset=".352"
         stop-color="#F20755"
         id="stop4" /><stop
         _ngcontent-ng-c586675657=""
         offset=".494"
         stop-color="#DC087D"
         id="stop5" /><stop
         _ngcontent-ng-c586675657=""
         offset=".745"
         stop-color="#9717E7"
         id="stop6" /><stop
         _ngcontent-ng-c586675657=""
         offset="1"
         stop-color="#6C00F5"
         id="stop7" /></linearGradient><linearGradient
       _ngcontent-ng-c586675657=""
       id="c"
       x1="41.025002"
       x2="156.741"
       y1="28.344"
       y2="160.34399"
       gradientUnits="userSpaceOnUse"><stop
         _ngcontent-ng-c586675657=""
         stop-color="#FF31D9"
         id="stop8" /><stop
         _ngcontent-ng-c586675657=""
         offset="1"
         stop-color="#FF5BE1"
         stop-opacity="0"
         id="stop9" /></linearGradient><clipPath
       _ngcontent-ng-c586675657=""
       id="a"><path
         _ngcontent-ng-c586675657=""
         fill="#ffffff"
         d="M 0,0 H 223 V 236 H 0 Z"
         id="path9" /></clipPath></defs><g
     id="g15"
     transform="matrix(0.31409917,0,0,0.31409917,63.552216,23.133261)"><rect
       style="opacity:1;fill:#ffffff;stroke-width:53.757;stroke-linecap:square;paint-order:markers stroke fill"
       id="rect9"
       width="292.6875"
       height="292.6875"
       x="214.94766"
       y="64.955879"
       ry="54.05558" /><path
       id="rect10"
       style="opacity:1;fill:#514346;fill-opacity:1;stroke-width:12.613;stroke-linecap:square;paint-order:markers stroke fill"
       d="m 339.63466,111.21552 c -7.02641,0 -12.68528,5.65887 -12.68528,12.6853 v 43.30969 c 0,7.02643 5.65887,12.6853 12.68528,12.6853 h 14.7133 V 201.224 h -64.36562 c -9.87029,0 -17.81659,7.94629 -17.81659,17.81659 v 26.10559 h -15.80219 c -7.02643,0 -12.6853,5.64526 -12.6853,12.67169 v 43.30969 c 0,7.02643 5.65887,12.68531 12.6853,12.68531 h 43.3097 c 7.02642,0 12.6853,-5.65888 12.6853,-12.68531 v -43.30969 c 0,-7.02643 -5.65888,-12.67169 -12.6853,-12.67169 H 286.2938 v -18.79657 c 0,-5.55364 4.47754,-10.01758 10.03119,-10.01758 h 58.02297 v 28.81415 h -14.7133 c -7.02641,0 -12.68528,5.64526 -12.68528,12.67169 v 43.30969 c 0,7.02643 5.65887,12.68531 12.68528,12.68531 h 43.3097 c 7.0264,0 12.6853,-5.65888 12.6853,-12.68531 v -43.30969 c 0,-7.02643 -5.6589,-12.67169 -12.6853,-12.67169 h -14.7133 v -28.81415 h 58.513 c 5.5537,0 10.0312,4.46394 10.0312,10.01758 v 18.79657 h -13.8695 c -7.0264,0 -12.6717,5.64526 -12.6717,12.67169 v 43.30969 c 0,7.02643 5.6453,12.68531 12.6717,12.68531 h 43.3097 c 7.0265,0 12.6853,-5.65888 12.6853,-12.68531 v -43.30969 c 0,-7.02643 -5.6588,-12.67169 -12.6853,-12.67169 h -15.8022 v -26.10559 c 0,-9.8703 -7.9463,-17.81659 -17.8165,-17.81659 h -64.3657 v -21.32819 h 14.7133 c 7.0264,0 12.6853,-5.65887 12.6853,-12.6853 v -43.30969 c 0,-7.02643 -5.6589,-12.6853 -12.6853,-12.6853 z" /></g></svg>
